<?xml version="1.0" encoding="utf-8"?>
<!-- Generator: Adobe Illustrator 24.0.0, SVG Export Plug-In . SVG Version: 6.00 Build 0)  -->
<svg version="1.1" id="Capa_1" xmlns="http://www.w3.org/2000/svg" xmlns:xlink="http://www.w3.org/1999/xlink" x="0px" y="0px"
	 viewBox="0 0 270 270" style="enable-background:new 0 0 270 270;" xml:space="preserve">
<style type="text/css">
	.st0{display:none;fill:#FFFFFF;}
	.st1{fill:#FFFFFF;}
</style>
<title>Instagram_logo</title>
<circle class="st0" cx="135" cy="135" r="135"/>
<path class="st1" d="M103.5,135c0-17.4,14.1-31.5,31.5-31.5c17.4,0,31.5,14.1,31.5,31.5s-14.1,31.5-31.5,31.5c0,0,0,0,0,0
	C117.6,166.5,103.5,152.4,103.5,135 M86.5,135c0,26.8,21.7,48.5,48.5,48.5s48.5-21.7,48.5-48.5S161.8,86.5,135,86.5c0,0,0,0,0,0
	C108.2,86.5,86.5,108.2,86.5,135L86.5,135 M174.1,84.5c0,6.3,5.1,11.3,11.3,11.3c6.3,0,11.3-5.1,11.3-11.3c0-6.3-5.1-11.3-11.3-11.3
	c0,0,0,0,0,0l0,0C179.2,73.2,174.1,78.3,174.1,84.5 M96.8,211.9c-9.2-0.4-14.2-1.9-17.5-3.2c-8.2-3.2-14.8-9.7-17.9-17.9
	c-1.3-3.3-2.8-8.3-3.2-17.6c-0.5-10-0.5-13-0.5-38.2s0.1-28.2,0.5-38.2c0.4-9.2,1.9-14.2,3.2-17.6C64.5,71,71,64.5,79.3,61.3
	c3.3-1.3,8.3-2.8,17.5-3.3c10-0.5,13-0.5,38.2-0.5s28.2,0.1,38.2,0.5c9.2,0.4,14.2,1.9,17.6,3.3c8.2,3.2,14.8,9.7,17.9,17.9
	c1.3,3.3,2.8,8.3,3.2,17.5c0.5,10,0.5,13,0.5,38.2s-0.1,28.2-0.5,38.2c-0.4,9.2-1.9,14.2-3.2,17.6c-3.2,8.2-9.7,14.8-17.9,17.9
	c-3.3,1.3-8.3,2.8-17.6,3.2c-10,0.5-13,0.5-38.2,0.5S106.8,212.4,96.8,211.9 M96,41.1c-10.1,0.5-16.9,2.1-22.9,4.4
	c-12.7,4.9-22.7,14.9-27.6,27.6c-2.3,6-3.9,12.9-4.4,22.9s-0.6,13.3-0.6,39s0.1,28.9,0.6,39s2.1,16.9,4.4,22.9
	c4.9,12.7,14.9,22.7,27.6,27.6c6,2.3,12.9,3.9,22.9,4.4c10.1,0.5,13.3,0.6,39,0.6s28.9-0.1,39-0.6c10-0.5,16.9-2.1,22.9-4.4
	c12.7-4.9,22.7-14.9,27.6-27.6c2.3-6,3.9-12.9,4.4-22.9c0.4-10.1,0.6-13.3,0.6-39s-0.1-28.9-0.6-39c-0.5-10.1-2.1-17-4.4-22.9
	c-4.9-12.7-14.9-22.7-27.6-27.6c-6-2.3-12.9-3.9-22.9-4.4c-10-0.5-13.3-0.6-39-0.6S106.1,40.6,96,41.1"/>
</svg>
