<?xml version="1.0" encoding="utf-8"?>
<!-- Generator: Adobe Illustrator 24.0.0, SVG Export Plug-In . SVG Version: 6.00 Build 0)  -->
<svg version="1.1" id="Capa_1" xmlns="http://www.w3.org/2000/svg" xmlns:xlink="http://www.w3.org/1999/xlink" x="0px" y="0px"
	 viewBox="0 0 496 512" style="enable-background:new 0 0 496 512;" xml:space="preserve">
<style type="text/css">
	.st0{fill:#1ED760;}
</style>
<path class="st0" d="M248,17.5C116.3,17.5,9.5,124.3,9.5,256S116.3,494.5,248,494.5S486.5,387.7,486.5,256S379.7,17.5,248,17.5z"/>
<path d="M400.5,232.1c-5,0-8.1-1.3-12.4-3.8c-68.5-40.9-190.9-50.7-270.1-28.6c-3.5,1-7.8,2.5-12.4,2.5c-12.7,0-22.4-9.9-22.4-22.7
	c0-13.1,8.1-20.5,16.7-23c33.9-9.9,71.7-14.6,113-14.6c70.2,0,143.8,14.6,197.5,46c7.5,4.3,12.4,10.3,12.4,21.7
	C422.8,222.7,412.3,232.1,400.5,232.1L400.5,232.1z M370.7,305.3c-5,0-8.4-2.2-11.8-4c-60.1-35.6-149.7-49.9-229.5-28.3
	c-4.6,1.3-7.1,2.5-11.4,2.5c-10.3,0-18.7-8.4-18.7-18.7s5-17.1,14.9-19.9c26.7-7.5,54-13.1,94.1-13.1c62.4,0,122.7,15.5,170.2,43.8
	c7.8,4.6,10.9,10.6,10.9,18.9C389.3,297,381.2,305.3,370.7,305.3z M344.8,368.4c-4,0-6.5-1.3-10.3-3.5
	c-60-36.2-129.8-37.7-198.8-23.6c-3.8,1-8.7,2.5-11.4,2.5c-9.3,0-15.2-7.4-15.2-15.2c0-9.9,5.9-14.6,13.1-16.2
	c78.8-17.4,159.3-15.9,227.9,25.2c5.9,3.8,9.3,7.1,9.3,15.9C359.5,362.4,352.6,368.4,344.8,368.4L344.8,368.4z"/>
</svg>
