<?xml version="1.0" encoding="utf-8"?>
<!-- Generator: Adobe Illustrator 24.0.0, SVG Export Plug-In . SVG Version: 6.00 Build 0)  -->
<svg version="1.1" id="Capa_1" xmlns="http://www.w3.org/2000/svg" xmlns:xlink="http://www.w3.org/1999/xlink" x="0px" y="0px"
	 viewBox="0 0 256 256" style="enable-background:new 0 0 256 256;" xml:space="preserve">
<style type="text/css">
	.st0{display:none;}
	.st1{fill:#00F2EA;}
	.st2{fill:#FF004F;}
	.st3{fill:#FFFFFF;}
</style>
<g transform="translate(1.4065934065934016 1.4065934065934016) scale(2.81 2.81)">
	<path class="st0" d="M45,90L45,90C20.1,90,0,69.9,0,45l0,0C0,20.1,20.1,0,45,0l0,0c24.9,0,45,20.1,45,45l0,0C90,69.9,69.9,90,45,90
		z"/>
	<path class="st1" d="M38.4,37.9v-2.6c-0.9-0.1-1.8-0.2-2.7-0.2c-11.2,0-20.4,9.1-20.4,20.4c0,6.9,3.4,13,8.7,16.7
		c-3.5-3.8-5.5-8.7-5.5-13.9C18.5,47.2,27.4,38.1,38.4,37.9"/>
	<path class="st1" d="M38.9,67.5c5,0,9.1-4,9.3-9l0-44.4h8.1c-0.2-0.9-0.3-1.9-0.3-2.8H45l0,44.4c-0.2,5-4.3,9-9.3,9
		c-1.5,0-3-0.4-4.3-1.1C33.1,66.1,35.9,67.5,38.9,67.5 M71.5,29.3v-2.5c-3,0-5.9-0.9-8.4-2.5C65.3,26.8,68.2,28.5,71.5,29.3"/>
	<path class="st2" d="M63.1,24.3c-2.4-2.8-3.8-6.4-3.8-10.1h-3C57.1,18.3,59.6,22,63.1,24.3 M35.7,46.1c-5.1,0-9.3,4.2-9.3,9.3
		c0,3.5,1.9,6.6,5,8.2c-1.1-1.6-1.8-3.5-1.8-5.4c0-5.1,4.2-9.3,9.3-9.3c1,0,1.9,0.2,2.7,0.4V38c-0.9-0.1-1.8-0.2-2.7-0.2
		c-0.2,0-0.3,0-0.5,0v8.7C37.5,46.3,36.6,46.1,35.7,46.1"/>
	<path class="st2" d="M71.5,29.3v8.6c-5.7,0-11.1-1.8-15.4-5v22.5c0,11.2-9.1,20.4-20.4,20.4c-4.3,0-8.4-1.4-11.7-3.7
		c3.8,4.2,9.3,6.5,14.9,6.5c11.2,0,20.4-9.1,20.4-20.4V35.7c4.5,3.2,9.9,5,15.4,5V29.6C73.6,29.6,72.5,29.5,71.5,29.3"/>
	<path class="st3" d="M56.1,55.4V32.9c4.5,3.2,9.9,5,15.4,5v-8.6c-3.3-0.7-6.2-2.4-8.4-5c-3.5-2.3-6-6-6.8-10.1h-8.1l0,44.4
		c-0.2,5-4.3,9-9.3,9c-3,0-5.8-1.4-7.5-3.9c-3.1-1.6-5-4.8-5-8.2c0-5.1,4.2-9.3,9.3-9.3c1,0,1.9,0.2,2.7,0.4v-8.7
		c-11,0.3-19.9,9.3-19.9,20.4c0,5.4,2.1,10.2,5.5,13.9c3.4,2.4,7.5,3.7,11.7,3.7C46.9,75.8,56.1,66.7,56.1,55.4"/>
</g>
</svg>
