<?xml version="1.0" encoding="utf-8"?>
<!-- Generator: Adobe Illustrator 24.0.0, SVG Export Plug-In . SVG Version: 6.00 Build 0)  -->
<svg version="1.1" id="Capa_1" xmlns="http://www.w3.org/2000/svg" xmlns:xlink="http://www.w3.org/1999/xlink" x="0px" y="0px"
	 viewBox="0 0 300 300" style="enable-background:new 0 0 300 300;" xml:space="preserve">
<style type="text/css">
	.st0{fill:#FFFFFF;}
</style>
<path class="st0" d="M149.9,73c0,0-68.8,0-86,4.5c-9.2,2.6-16.8,10.2-19.4,19.6c-4.5,17.3-4.5,53-4.5,53s0,35.9,4.5,52.9
	c2.6,9.4,10.1,16.8,19.4,19.4c17.4,4.6,86,4.6,86,4.6s68.9,0,86.2-4.5c9.4-2.6,16.8-9.9,19.3-19.4c4.6-17.1,4.6-52.9,4.6-52.9
	s0.1-35.9-4.6-53.1c-2.4-9.4-9.9-16.8-19.3-19.3C218.8,73,149.9,73,149.9,73z M128.1,117l57.2,33L128.1,183V117L128.1,117z"/>
</svg>
